<?xml version="1.0" encoding="utf-8"?>
<!-- Generator: Adobe Illustrator 15.1.0, SVG Export Plug-In . SVG Version: 6.00 Build 0)  -->
<!DOCTYPE svg PUBLIC "-//W3C//DTD SVG 1.1//EN" "http://www.w3.org/Graphics/SVG/1.1/DTD/svg11.dtd">
<svg version="1.1" id="Layer_1" xmlns="http://www.w3.org/2000/svg" xmlns:xlink="http://www.w3.org/1999/xlink" x="0px" y="0px"
	 width="199px" height="200px" viewBox="144.75 0 199 200" enable-background="new 144.75 0 199 200" xml:space="preserve">
<path d="M326.33,2H162.17c-9.19,0-16.42,7.22-16.42,16.42v164.17c0,9.19,7.22,16.42,16.42,16.42h75.52h14.55v-64.67h-26.27v-26.27
	h26.27V85.08c0-18.71,14.45-34.47,32.83-36.12h29.55v26.27h-26.27c-5.58,0-9.85,4.27-9.85,9.85v22.98h32.83v26.27H278.5V199h47.83
	c9.19,0,16.42-7.22,16.42-16.42V18.42C342.75,9.22,335.53,2,326.33,2z"/>
</svg>
