<?xml version="1.0" encoding="utf-8"?>
<!-- Generator: Adobe Illustrator 15.1.0, SVG Export Plug-In . SVG Version: 6.00 Build 0)  -->
<!DOCTYPE svg PUBLIC "-//W3C//DTD SVG 1.1//EN" "http://www.w3.org/Graphics/SVG/1.1/DTD/svg11.dtd">
<svg version="1.1" id="Layer_1" xmlns="http://www.w3.org/2000/svg" xmlns:xlink="http://www.w3.org/1999/xlink" x="0px" y="0px"
	 width="155.211px" height="164.178px" viewBox="0 0 155.211 164.178" enable-background="new 0 0 155.211 164.178"
	 xml:space="preserve">
<g>
	<path fill-rule="evenodd" clip-rule="evenodd" d="M135.108,115.328V74.972c0-3.536-1.23-5.304-3.689-5.304
		c-2.46,0-3.69,1.768-3.69,5.304v40.356c0,3.536,1.23,5.304,3.69,5.304C133.877,120.632,135.108,118.864,135.108,115.328
		L135.108,115.328z M80.634,0c24.697,1.456,47.087,21.982,47.087,46.949c0,0.201-0.003,0.401-0.007,0.602h0.014v7.243
		c1.23,0,2.46,0,3.69,0c6.687,0,12.145,1.844,16.372,5.535c5.228,4.535,7.842,11.568,7.842,21.1v29.057
		c0,9.532-2.614,16.565-7.842,21.101c-4.228,3.689-9.686,5.534-16.372,5.534h-24.215V47.788h-0.019
		c0.009-0.279,0.016-0.558,0.016-0.839c0-13.699-13.185-25.033-26.566-26.438V0L80.634,0z"/>
	<path fill-rule="evenodd" clip-rule="evenodd" d="M27.903,115.328V74.972c0-3.536-1.23-5.304-3.689-5.304
		c-2.46,0-3.69,1.768-3.69,5.304v40.356c0,3.536,1.23,5.304,3.69,5.304C26.673,120.632,27.903,118.864,27.903,115.328
		L27.903,115.328z M74.45,20.576c-13.108,1.664-25.994,12.87-25.994,26.373c0,0.281,0.006,0.56,0.015,0.839h-0.043v89.333H24.214
		c-6.688,0-12.146-1.845-16.374-5.534C2.613,127.051,0,120.018,0,110.485V81.428c0-9.532,2.613-16.565,7.84-21.1
		c4.228-3.69,9.686-5.535,16.374-5.535c1.23,0,2.459,0,3.689,0V47.55h0.039c-0.004-0.2-0.007-0.401-0.007-0.602
		c0-24.773,22.086-45.176,46.515-46.913V20.576L74.45,20.576z"/>
	<path fill-rule="evenodd" clip-rule="evenodd" d="M80.933,115.015c0,3.51-0.896,5.415-2.692,5.72
		c-0.082,0.008-0.166,0.012-0.252,0.012c-2.153,0-3.229-1.921-3.229-5.764V75.751h0.01V54.775H54.292v4.667
		c-0.019-0.035-0.038-0.069-0.057-0.104v56.335c0,14.298,4.65,21.446,13.952,21.446h9.015v0.032h10.304
		c9.301,0,13.951-7.149,13.951-21.446V75.751h0.013V54.775H80.93C80.93,74.856,80.933,94.93,80.933,115.015L80.933,115.015z"/>
	<path fill-rule="evenodd" clip-rule="evenodd" d="M3.648,164.012v-3.683h9.439c1.521,0,2.535-0.157,3.036-0.455
		c0.723-0.43,1.091-1.086,1.091-1.954c0-0.999-0.429-1.741-1.272-2.198c-0.479-0.26-1.274-0.394-2.322-0.394H9.788
		c-2.343,0-4.038-0.428-5.064-1.272c-0.643-0.529-1.157-1.216-1.516-2.022c-0.358-0.805-0.543-1.681-0.543-2.602
		c0-1.453,0.427-2.791,1.272-3.982c0.818-1.155,2.16-1.847,3.982-2.027c0.607-0.061,1.537-0.094,2.757-0.094h10.262v3.683h-9.258
		c-1.387,0.011-2.315,0.075-2.757,0.181c-0.927,0.224-1.396,0.937-1.396,2.106c0,0.987,0.394,1.66,1.169,2.001
		c0.516,0.227,1.391,0.347,2.606,0.347h3.315c1.697,0,2.974,0.156,3.807,0.439c1.457,0.495,2.475,1.373,3.015,2.607
		c0.435,0.993,0.667,2.068,0.667,3.211c0,1.252-0.296,2.386-0.864,3.383c-0.801,1.406-2.032,2.266-3.651,2.529
		c-0.784,0.128-1.983,0.196-3.548,0.196H3.648L3.648,164.012z M37.014,147.011H30.42v-3.683h17.839v3.683h-6.848v17.001h-4.397
		V147.011L37.014,147.011z M61.999,143.328v12.394c0,0.993,0.091,1.771,0.244,2.312c0.151,0.54,0.446,1.028,0.833,1.401
		c0.87,0.842,2.089,1.272,3.636,1.272c0.988,0,1.859-0.177,2.587-0.502c0.729-0.326,1.245-0.787,1.531-1.36
		c0.292-0.584,0.439-1.629,0.439-3.123v-12.394h4.396v12.181c0,1.608-0.176,2.945-0.502,3.987c-0.326,1.041-0.864,1.905-1.572,2.529
		c-1.618,1.429-3.947,2.152-6.957,2.152c-3.191,0-5.535-0.709-6.998-2.105c-0.765-0.729-1.307-1.564-1.593-2.456
		s-0.439-2.162-0.439-3.786v-12.502H61.999L61.999,143.328z M86.985,143.328h8.777c2.193,0,3.897,0.226,5.09,0.652
		c2.206,0.789,3.697,2.276,4.427,4.422c0.559,1.641,0.849,3.419,0.849,5.307c0,1.867-0.28,3.638-0.802,5.286
		c-0.533,1.688-1.442,2.953-2.685,3.744c-0.78,0.497-1.657,0.851-2.586,1.015c-0.924,0.162-2.379,0.258-4.293,0.258h-8.777V143.328
		L86.985,143.328z M91.38,147.011v13.318h4.382c1.919,0,3.262-0.436,3.998-1.287c0.448-0.52,0.828-1.286,1.097-2.25
		c0.27-0.966,0.418-2.012,0.418-3.114c0-1.21-0.172-2.336-0.49-3.347c-0.322-1.017-0.771-1.789-1.314-2.275
		c-0.775-0.693-2.038-1.045-3.708-1.045H91.38L91.38,147.011z M116.547,164.012v-20.684h4.396v20.684H116.547L116.547,164.012z
		 M141.579,143.194c2.061-0.003,3.896,0.356,5.457,1.06c1.841,0.83,3.146,2.257,3.879,4.226c0.577,1.551,0.88,3.384,0.88,5.488
		c0,2.1-0.357,3.931-1.076,5.467c-0.866,1.854-2.245,3.158-4.076,3.879c-1.368,0.539-2.958,0.818-4.743,0.818
		c-2.327,0-4.356-0.442-6.077-1.304c-1.441-0.723-2.56-1.873-3.315-3.414c-0.756-1.544-1.143-3.435-1.143-5.648
		c0-3.936,0.981-6.753,2.938-8.421C135.953,143.938,138.392,143.198,141.579,143.194L141.579,143.194z M141.61,146.68
		c-2.027,0-3.491,0.67-4.365,1.986c-0.68,1.023-1.029,2.685-1.029,4.965c0,2.427,0.439,4.213,1.304,5.349
		c0.85,1.117,2.229,1.681,4.106,1.681c1.814,0,3.169-0.574,4.024-1.701c0.858-1.13,1.292-2.896,1.292-5.281
		c0-2.162-0.354-3.816-1.044-4.955C145.084,147.381,143.643,146.68,141.61,146.68L141.61,146.68z"/>
</g>
</svg>
