<?xml version="1.0" encoding="utf-8"?>
<!-- Generator: Adobe Illustrator 15.1.0, SVG Export Plug-In . SVG Version: 6.00 Build 0)  -->
<!DOCTYPE svg PUBLIC "-//W3C//DTD SVG 1.1//EN" "http://www.w3.org/Graphics/SVG/1.1/DTD/svg11.dtd">
<svg version="1.1" id="Layer_1" xmlns="http://www.w3.org/2000/svg" xmlns:xlink="http://www.w3.org/1999/xlink" x="0px" y="0px"
	 width="131.52px" height="130.98px" viewBox="185.79 42.67 131.52 130.98" enable-background="new 185.79 42.67 131.52 130.98"
	 xml:space="preserve">
<path fill="none" d="M234.96,105.45l-4.27,0.29c-2.7,0.18-5.12,1.41-6.81,3.46c-1.7,2.05-2.45,4.65-2.13,7.33l0.34,2.83
	c0.49,4.06,3.13,6.69,6.75,6.69c1.28,0,2.59-0.34,3.9-1l3.71-1.88c4.87-2.48,8.69-7.4,8.69-11.19
	C245.13,108.01,240.67,105.07,234.96,105.45z"/>
<path fill="none" d="M272.62,105.74l-4.27-0.29c-5.69-0.37-10.17,2.56-10.17,6.53c0,3.8,3.82,8.71,8.69,11.19l3.71,1.88
	c1.31,0.67,2.62,1,3.9,1c3.61,0,6.26-2.63,6.75-6.69l0.34-2.83c0.32-2.68-0.43-5.29-2.13-7.33
	C277.73,107.15,275.32,105.93,272.62,105.74z"/>
<path fill="none" d="M251.06,121.74c-4.29,0-6.65,10.94-6.65,14.57c0,1.54,0.37,2.56,1.16,3.21c0.8,0.65,1.85,0.74,2.78,0.74
	c0.39,0,0.8-0.01,1.23-0.03c0.92-0.04,2.01-0.04,2.94,0c0.44,0.02,0.85,0.03,1.23,0.03c1.95,0,3.95-0.47,3.95-3.94
	C257.71,132.68,255.35,121.74,251.06,121.74z"/>
<path d="M295.51,145.51"/>
<g>
	<path d="M252.75,54.97h-3.72c-25.17,0-38.39,18.69-38.39,41.66v23.73c0,7.66,5.47,16.99,5.58,17.02l4.88,0.55l13.11,2.35
		c0.79,0.27,1.36,1,1.36,1.84v6.75c0,1.16,0.7,2.01,1.76,2.62c0.13-0.94,1.03-1.66,2.01-1.66c1.07,0,2.04,0.87,2.04,1.94v0.87
		c0,0.06,0.74,0.1,1.19,0.1h2.68v-0.97c0-1.07,0.87-1.93,1.94-1.93s1.94,0.87,1.94,1.93v0.97h3.87v-0.97c0-1.07,0.87-1.93,1.94-1.93
		c1.07,0,1.93,0.87,1.93,1.93v0.97h2.04c0.5,0,0.86-0.03,1.83-0.08v-0.89c0-1.07,0.78-1.94,1.85-1.94c1.05,0,1.85,0.83,1.89,1.88
		c1.11-0.58,1.96-1.46,1.96-2.83c0-0.12,0.11-0.24,0.11-0.35v-6.4c0-0.83,0.43-1.57,1.22-1.84c0,0,16.47-2.51,17.72-2.91
		c0.27-0.09,7-9.35,7-17.02V96.63C292.48,73.66,277.92,54.97,252.75,54.97z M236.26,123.17l-3.71,1.88c-1.31,0.67-2.62,1-3.9,1
		c-3.61,0-6.26-2.63-6.75-6.69l-0.34-2.83c-0.32-2.68,0.44-5.29,2.13-7.33c1.69-2.04,4.11-3.27,6.81-3.46l4.27-0.29
		c5.71-0.38,10.17,2.56,10.17,6.53C244.95,115.77,241.13,120.69,236.26,123.17z M253.59,140.25c-0.38,0-0.8-0.02-1.23-0.03
		c-0.93-0.04-2.01-0.04-2.94,0c-0.44,0.02-0.85,0.03-1.23,0.03c-0.93,0-1.99-0.09-2.78-0.74c-0.79-0.65-1.16-1.67-1.16-3.21
		c0-3.63,2.36-14.57,6.65-14.57c4.29,0,6.65,10.94,6.65,14.57C257.53,139.79,255.54,140.25,253.59,140.25z M281.38,116.53
		l-0.34,2.83c-0.49,4.07-3.13,6.69-6.75,6.69c-1.28,0-2.59-0.34-3.9-1l-3.71-1.88c-4.87-2.48-8.69-7.39-8.69-11.19
		c0-3.97,4.47-6.9,10.17-6.53l4.27,0.29c2.7,0.18,5.12,1.41,6.81,3.46C280.95,111.25,281.71,113.85,281.38,116.53z"/>
	<path d="M311.19,89.83h-0.25v-0.99c0-2.37-1.71-4.3-3.83-4.3h-1.77c-5.61-24.14-28.18-41.87-54.14-41.87
		c-25.96,0-48.52,17.73-54.13,41.87h4.43c5.27-22.7,25.75-38.89,49.76-38.89c24,0,44.48,16.19,49.76,38.89h-1.57
		c-2.11,0-3.83,1.92-3.83,4.3v34.38c0,2.37,1.71,4.3,3.83,4.3h7.66c2.11,0,3.83-1.92,3.83-4.3v-0.97h0.25
		c3.38,0,6.12-3.11,6.12-6.95V96.77C317.31,92.94,314.57,89.83,311.19,89.83z"/>
	<path d="M259.9,162.18h-18.44c-2.34,0.01-4.42,1.54-5.2,3.82h-23.53c-7.13,0-12.91-5.99-12.91-13.38v-25.1h3.83
		c2.11,0,3.83-1.92,3.83-4.3V88.85c0-2.37-1.71-4.3-3.83-4.3H196c-2.11,0-3.83,1.92-3.83,4.3v0.99h-0.26
		c-3.38,0-6.12,3.11-6.12,6.95v18.53c0,3.84,2.74,6.95,6.12,6.95h0.26v0.97c0,2.37,1.71,4.3,3.83,4.3h0.14v25.1
		c0,9.5,7.43,17.21,16.6,17.21h23.53c0.78,2.29,2.86,3.82,5.2,3.82h18.44c3.05,0,5.53-2.57,5.53-5.74
		C265.43,164.75,262.95,162.18,259.9,162.18z"/>
</g>
<path d="M194.76,126.15"/>
</svg>
