<?xml version="1.0" encoding="utf-8"?>
<!-- Generator: Adobe Illustrator 15.1.0, SVG Export Plug-In . SVG Version: 6.00 Build 0)  -->
<!DOCTYPE svg PUBLIC "-//W3C//DTD SVG 1.1//EN" "http://www.w3.org/Graphics/SVG/1.1/DTD/svg11.dtd">
<svg version="1.1" id="Layer_1" xmlns="http://www.w3.org/2000/svg" xmlns:xlink="http://www.w3.org/1999/xlink" x="0px" y="0px"
	 width="199px" height="200px" viewBox="144.75 0 199 200" enable-background="new 144.75 0 199 200" xml:space="preserve">
<path d="M327.17,17.67H161.33c-9.29,0-16.58,6.09-16.58,13.83v138.33c0,7.75,7.3,13.83,16.58,13.83h76.28h39.8h49.75
	c9.29,0,16.58-6.09,16.58-13.83V31.5C343.75,23.75,336.45,17.67,327.17,17.67z M283.03,104.59l-64.08,35.39
	c-0.67,0.33-1.01,0.33-1.69,0.33c-0.68,0-1.01,0-1.69-0.33c-1.01-0.67-1.69-1.67-1.69-3.01V64.52c0-1.34,0.67-2.34,1.69-3.01
	c1.01-0.67,2.36-0.67,3.37,0l64.08,37.06c1.01,0.67,1.69,1.67,1.69,3C284.72,102.92,284.04,103.92,283.03,104.59z"/>
</svg>
